HIERARCHY
ROOT Hips
{
	OFFSET 0.00000 0.00000 0.00000
	CHANNELS 6 Xposition Yposition Zposition Zrotation Yrotation Xrotation 
	JOINT LHipJoint
	{
		OFFSET 0 0 0
		CHANNELS 3 Zrotation Yrotation Xrotation
		JOINT LeftHip
		{
			OFFSET 1.73240 -1.89999 0.57994
			CHANNELS 3 Zrotation Yrotation Xrotation
			JOINT LeftKnee
			{
				OFFSET 2.43106 -6.67930 0.00000
				CHANNELS 3 Zrotation Yrotation Xrotation
				JOINT LeftAnkle
				{
					OFFSET 2.78854 -7.66147 0.00000
					CHANNELS 3 Zrotation Yrotation Xrotation
					JOINT LeftToe
					{
						OFFSET 0.17314 -0.47571 2.01064
						CHANNELS 3 Zrotation Yrotation Xrotation
						End Site
						{
							OFFSET 0.00000 -0.00000 1.04147
						}
					}
				}
			}
		}
	}
	JOINT RHipJoint
	{
		OFFSET 0 0 0
		CHANNELS 3 Zrotation Yrotation Xrotation
		JOINT RightHip
		{
			OFFSET -1.57078 -1.89998 0.57994
			CHANNELS 3 Zrotation Yrotation Xrotation
			JOINT RightKnee
			{
				OFFSET -2.50166 -6.87326 0.00000
				CHANNELS 3 Zrotation Yrotation Xrotation
				JOINT RightAnkle
				{
					OFFSET -2.77304 -7.61886 0.00000
					CHANNELS 3 Zrotation Yrotation Xrotation
					JOINT RightToe
					{
						OFFSET -0.23513 -0.64602 2.11039
						CHANNELS 3 Zrotation Yrotation Xrotation
						End Site
						{
							OFFSET -0.00000 -0.00000 1.10597
						}
					}
				}
			}
		}
	}
	JOINT lowerback
	{
		OFFSET 0 0 0
		CHANNELS 3 Zrotation Yrotation Xrotation
		JOINT Chest
		{
			OFFSET -0.00908 2.00015 -0.35323
			CHANNELS 3 Zrotation Yrotation Xrotation
			JOINT Chest2
			{
				OFFSET 0.05647 2.02258 0.04270
				CHANNELS 3 Zrotation Yrotation Xrotation
				JOINT lowerneck
				{
					OFFSET 0 0 0
					CHANNELS 3 Zrotation Yrotation Xrotation
					JOINT Neck
					{
						OFFSET -0.02074 1.73711 0.13117
						CHANNELS 3 Zrotation Yrotation Xrotation
						JOINT Head
						{
							OFFSET -0.02359 1.73615 -0.24320
							CHANNELS 3 Zrotation Yrotation Xrotation
							End Site
							{
								OFFSET -0.00579 1.75982 -0.09688
							}
						}
					}
				}
				JOINT LeftCollar
				{
					OFFSET 0 0 0
					CHANNELS 3 Zrotation Yrotation Xrotation
					JOINT LeftShoulder
					{
						OFFSET 3.20537 1.11432 -0.27680
CHANNELS 3 Zrotation Xrotation Yrotation
						JOINT LeftElbow
						{
OFFSET 0 -5.059230 -0.000000
CHANNELS 3 Zrotation Xrotation Yrotation
							JOINT LeftWrist
							{
OFFSET 0 -3.519960 0.000000
CHANNELS 3 Zrotation Xrotation Yrotation
								JOINT lhand
								{
									OFFSET 0 0 0
CHANNELS 3 Zrotation Xrotation Yrotation
									JOINT LFingers
									{
OFFSET 0 -0.652380 0.000000
CHANNELS 3 Zrotation Xrotation Yrotation
										End Site
										{
OFFSET 0 -0.525960 0.000000
										}
									}
								}
								JOINT LThumb
								{
OFFSET 0 0.000000 0.000000
CHANNELS 3 Zrotation Xrotation Yrotation
									End Site
									{
OFFSET 0 -0.533990 0.533990
									}
								}
							}
						}
					}
				}
				JOINT RightCollar
				{
					OFFSET 0 0 0
					CHANNELS 3 Zrotation Yrotation Xrotation
					JOINT RightShoulder
					{
						OFFSET -2.96983 1.42602 -0.37449
CHANNELS 3 Zrotation Xrotation Yrotation
						JOINT RightElbow
						{
OFFSET 0 -5.408670 0.000000
CHANNELS 3 Zrotation Xrotation Yrotation
							JOINT RightWrist
							{
OFFSET 0 -3.129640 0.000000
CHANNELS 3 Zrotation Xrotation Yrotation
								JOINT rhand
								{
									OFFSET 0 0 0
CHANNELS 3 Zrotation Xrotation Yrotation
									JOINT RFingers
									{
OFFSET 0 -0.832710 0.000000
CHANNELS 3 Zrotation Xrotation Yrotation
										End Site
										{
OFFSET 0 -0.671350 0.000000
										}
									}
								}
								JOINT RThumb
								{
OFFSET 0 0.000000 0.000000
CHANNELS 3 Zrotation Xrotation Yrotation
									End Site
									{
OFFSET 0 -0.681600 0.681600
									}
								}
							}
						}
					}
				}
			}
		}
	}
}
MOTION
Frames: 11
Frame Time: 0.008333333333333333
4.805027 17.651432 0.861512 -1.278556 -11.260080 -4.141468 0.000000 0.000000 0.000000 -17.724325 -15.685313 -20.943378 3.368691 11.268787 33.192411 0.001999 2.181404 -3.196217 0.180365 -2.735518 -7.543347 0.000000 0.000000 0.000000 23.593169 1.443399 2.078970 -8.248070 -16.291183 53.439157 -0.955006 -4.230458 17.471780 -0.651610 -5.129861 14.286414 -0.855106 1.583221 18.578125 3.819302 2.236538 2.054199 4.063552 1.167078 -8.388377 -5.878242 -6.439271 -6.640566 -2.502638 -7.582445 31.266423 -0.793636 -4.427562 11.395579 0.000000 0.000000 0.000000 0.124299 19.451728 -1.405314 16.975923 -26.826070 4.076450 14.883646 8.212866 -50.816347 0.000000 0.000000 0.000000 -7.125000 0.000000 0.000000 -57.026699 76.050060 44.320955 0.000000 0.000000 0.000000 -7.014683 6.175497 -38.369014 -39.712985 -47.886911 -18.229738 -5.075597 -48.993033 3.154994 0.000000 0.000000 0.000000 7.125000 0.000000 0.000000 17.316307 32.774760 5.401235
4.813521 17.664812 1.135158 -0.713711 -11.897261 -4.528388 0.000000 0.000000 0.000000 -18.811216 -14.616272 -20.025933 3.455258 11.397813 33.633599 0.026122 1.845144 -4.283113 0.250093 -3.209798 -8.864184 0.000000 0.000000 0.000000 22.612131 2.457706 0.429599 -9.242815 -16.956702 56.919084 -1.319599 -6.167352 20.544387 -1.132126 -6.731322 18.931342 -1.361328 1.693702 18.654940 3.622479 2.258346 2.141289 4.132499 1.189145 -8.347560 -5.815890 -6.182160 -6.686006 -2.310154 -7.279716 31.041564 -0.692700 -4.261505 11.313655 0.000000 0.000000 0.000000 0.252160 19.411426 -1.597037 17.037536 -26.907258 4.104289 14.499460 7.674373 -50.619785 0.000000 0.000000 0.000000 -7.125000 0.000000 0.000000 -56.562491 75.812902 43.681830 0.000000 0.000000 0.000000 -6.817015 6.797615 -38.709606 -42.407145 -49.424258 -20.251985 -3.635534 -50.642217 3.184981 0.000000 0.000000 0.000000 7.125000 0.000000 0.000000 18.445977 32.743573 5.800725
4.818185 17.681997 1.401261 0.122982 -12.182953 -4.984367 0.000000 0.000000 0.000000 -20.233786 -13.638563 -18.951448 3.463257 11.409641 33.674169 0.050297 1.372735 -4.976608 0.345227 -3.775403 -10.445588 0.000000 0.000000 0.000000 21.357522 3.155298 -1.354155 -10.268455 -17.557924 60.381859 -1.570167 -9.677248 22.489875 -1.703931 -8.219943 23.384320 -2.107723 1.714927 18.836469 3.372221 2.111636 2.110431 4.324905 1.141943 -8.484651 -6.092662 -5.950742 -6.395386 -1.944402 -7.028328 30.748360 -0.465557 -4.137660 11.164927 0.000000 0.000000 0.000000 0.301900 19.736193 -2.023676 17.351489 -27.318880 4.247421 14.110507 7.015935 -50.541623 0.000000 0.000000 0.000000 -7.125000 0.000000 0.000000 -56.539796 75.626701 43.475537 0.000000 0.000000 0.000000 -6.671738 7.627793 -38.804841 -45.506661 -51.013935 -22.632065 -2.108107 -51.972168 3.209340 0.000000 0.000000 0.000000 7.125000 0.000000 0.000000 19.635961 32.700418 6.236162
4.814310 17.705233 1.654434 0.951508 -12.431867 -5.357389 0.000000 0.000000 0.000000 -21.553566 -12.558773 -17.853813 3.403014 11.320393 33.368345 0.073947 1.007891 -5.607190 0.302729 -3.520267 -9.732488 0.000000 0.000000 0.000000 20.240326 3.880620 -3.393189 -11.307324 -18.078320 63.771068 -1.486171 -12.351969 22.210207 -1.629211 -8.040559 22.840758 -2.947178 1.716677 19.034725 3.152848 1.916966 2.128300 4.618475 1.074632 -8.574031 -6.114196 -5.665272 -6.238383 -1.953692 -6.625670 30.437566 -0.404249 -3.958167 11.004344 0.000000 0.000000 0.000000 0.381518 19.898996 -2.677002 17.849236 -27.962852 4.478720 13.552099 6.256115 -51.520487 0.000000 0.000000 0.000000 -7.125000 0.000000 0.000000 -60.452391 75.821200 47.088364 0.000000 0.000000 0.000000 -6.669395 8.083570 -38.491210 -48.966800 -52.558813 -25.354362 -1.937905 -52.312481 3.409518 0.000000 0.000000 0.000000 7.125000 0.000000 0.000000 19.811323 32.881386 6.206187
4.810205 17.727867 1.901552 1.984292 -12.516713 -5.730802 0.000000 0.000000 0.000000 -23.057398 -11.607731 -16.656980 3.324461 11.202391 32.965718 0.102012 0.677068 -6.310218 0.188206 -2.793182 -7.703518 0.000000 0.000000 0.000000 18.844325 4.329686 -5.507690 -12.293959 -18.507490 66.912763 -1.136756 -13.738419 20.005094 -1.384770 -7.445705 21.042879 -3.931131 1.659485 19.130496 2.843839 1.604805 2.187938 4.928990 0.951102 -8.544042 -5.933402 -5.255214 -6.353551 -1.986296 -6.053937 30.189247 -0.377623 -3.681010 10.907063 0.000000 0.000000 0.000000 0.520534 20.000008 -3.429306 18.498689 -28.789154 4.787927 13.307791 5.285527 -50.804083 0.000000 0.000000 0.000000 -7.125000 0.000000 0.000000 -58.081854 75.410205 44.622851 0.000000 0.000000 0.000000 -6.749101 8.255933 -38.206649 -52.426935 -53.915010 -28.127721 -2.812700 -51.530163 3.364118 0.000000 0.000000 0.000000 7.125000 0.000000 0.000000 19.123724 32.877432 5.968964
4.801929 17.749982 2.153225 2.725843 -12.508714 -6.159559 0.000000 0.000000 0.000000 -24.239802 -10.715593 -15.247169 3.215954 11.036353 32.403071 0.134692 0.265691 -7.027667 0.178100 -2.718600 -7.496200 0.000000 0.000000 0.000000 17.806592 4.527365 -7.470542 -13.181863 -18.843433 69.686134 -0.749275 -14.727407 17.339913 -1.417421 -7.528537 21.291428 -4.582700 1.561094 19.245588 2.623481 1.313617 2.214360 5.140368 0.829349 -8.552853 -5.922615 -4.879114 -6.139815 -1.938268 -5.549733 29.820767 -0.289396 -3.442436 10.713164 0.000000 0.000000 0.000000 0.677751 20.158138 -4.057290 19.015950 -29.438194 5.038861 13.318592 4.612588 -48.899092 0.000000 0.000000 0.000000 -7.125000 0.000000 0.000000 -51.691145 74.499735 38.290424 0.000000 0.000000 0.000000 -6.970198 8.368804 -38.123254 -55.820178 -55.076075 -30.890615 -2.123362 -50.257947 3.402484 0.000000 0.000000 0.000000 7.125000 0.000000 0.000000 19.665791 32.881827 6.154728
4.792341 17.776125 2.409937 3.077422 -12.501309 -6.545428 0.000000 0.000000 0.000000 -24.952624 -10.069248 -13.810460 3.101126 10.856830 31.798743 0.160204 -0.324484 -7.451583 0.119319 -2.213795 -6.097559 0.000000 0.000000 0.000000 17.250975 4.623929 -9.277137 -13.940326 -19.094243 72.020674 -0.380076 -15.188157 14.406956 -1.550322 -7.857730 22.283444 -4.877174 1.413826 19.218097 2.559367 1.052796 2.309609 5.308414 0.705897 -8.403796 -5.501135 -4.432201 -6.104607 -2.543687 -4.818705 29.651051 -0.489552 -3.130039 10.594130 0.000000 0.000000 0.000000 0.783672 19.652077 -3.999425 18.875431 -29.263357 4.969920 13.438965 4.800653 -47.935004 0.000000 0.000000 0.000000 -7.125000 0.000000 0.000000 -48.623304 74.017937 35.311736 0.000000 0.000000 0.000000 -7.313317 8.302517 -38.033239 -59.531484 -56.174355 -33.953698 -0.835754 -48.879709 3.688579 0.000000 0.000000 0.000000 7.125000 0.000000 0.000000 20.726268 33.091288 6.414134
4.788132 17.809803 2.662618 3.747226 -11.893190 -6.810377 0.000000 0.000000 0.000000 -26.153707 -10.030379 -12.304963 2.984253 10.669555 31.173418 0.176977 -0.855516 -7.689481 0.082214 -1.848063 -5.086113 0.000000 0.000000 0.000000 16.171956 4.143819 -11.312001 -14.567522 -19.277173 73.930394 0.003292 -13.302189 9.293365 -0.660509 -5.197802 14.473496 -5.388657 1.112215 19.299124 2.369268 0.527013 2.257679 5.534713 0.469916 -8.438717 -5.151104 -4.078270 -5.920206 -3.010433 -4.261102 29.468251 -0.644559 -2.887715 10.456477 0.000000 0.000000 0.000000 0.935074 20.023280 -5.150762 19.899550 -30.521117 5.480264 14.082301 4.610025 -48.749827 0.000000 0.000000 0.000000 -7.125000 0.000000 0.000000 -50.545266 74.721071 37.535956 0.000000 0.000000 0.000000 -7.536136 8.467859 -37.590797 -63.946321 -57.271766 -37.643671 -0.549604 -47.625282 3.851810 0.000000 0.000000 0.000000 7.125000 0.000000 0.000000 20.985062 33.229819 6.429071
4.776753 17.840432 2.901147 3.161848 -11.691690 -6.850697 0.000000 0.000000 0.000000 -25.877921 -9.789409 -10.956008 2.884552 10.505550 30.630052 0.193158 -0.992720 -8.007745 0.149587 -2.489369 -6.860299 0.000000 0.000000 0.000000 16.818006 4.164788 -13.186497 -15.031901 -19.397163 75.332424 0.171372 -13.379602 7.044073 -0.670207 -5.235056 14.580095 -4.750134 0.824853 19.520293 2.523007 0.287563 2.178853 5.402870 0.343477 -8.611689 -4.897588 -3.798145 -6.231261 -3.195885 -3.829860 29.887967 -0.724986 -2.693635 10.659080 0.000000 0.000000 0.000000 1.157639 20.052028 -5.810918 20.460268 -31.192444 5.767997 14.696373 4.777886 -48.785007 0.000000 0.000000 0.000000 -7.125000 0.000000 0.000000 -50.146955 74.973682 37.447263 0.000000 0.000000 0.000000 -7.664200 8.555116 -37.273665 -68.713954 -58.203128 -41.678307 -1.297475 -45.933988 3.728491 0.000000 0.000000 0.000000 7.125000 0.000000 0.000000 20.378499 33.150829 6.262495
4.772986 17.862865 3.155616 3.437126 -11.270702 -7.053836 0.000000 0.000000 0.000000 -26.610516 -9.380651 -9.587160 2.800650 10.365067 30.167324 0.218023 -1.272518 -8.463254 0.184604 -2.766219 -7.628640 0.000000 0.000000 0.000000 16.292698 3.906141 -14.841896 -15.379922 -19.480041 76.378198 0.299485 -13.230219 4.798010 -0.646791 -5.144543 14.321300 -4.808416 0.509871 19.446182 2.427919 -0.145337 2.107062 5.445774 0.137372 -8.594030 -4.680386 -3.435042 -5.876692 -3.340212 -3.339976 29.676456 -0.746825 -2.459513 10.496290 0.000000 0.000000 0.000000 1.316502 20.078195 -6.216167 21.013651 -31.842384 6.057994 15.510562 5.112640 -48.630769 0.000000 0.000000 0.000000 -7.125000 0.000000 0.000000 -48.980986 75.200814 36.698403 0.000000 0.000000 0.000000 -7.901231 8.590528 -36.930335 -73.698933 -58.953527 -45.934028 -2.037181 -43.876236 3.499119 0.000000 0.000000 0.000000 7.125000 0.000000 0.000000 19.754644 32.970179 6.140638
4.763228 17.884538 3.397860 3.592448 -10.840881 -7.134264 0.000000 0.000000 0.000000 -27.068448 -8.776364 -8.614521 2.744352 10.269113 29.852704 0.244667 -1.865265 -8.879213 0.176510 -2.703961 -7.455790 0.000000 0.000000 0.000000 16.003548 3.804173 -16.585636 -15.611492 -19.531715 77.071807 0.408609 -13.560400 3.116956 -0.735777 -5.471464 15.260403 -4.901639 0.216569 19.256206 2.428576 -0.542679 2.179106 5.597465 -0.060433 -8.357721 -4.310553 -3.116149 -6.170240 -3.682895 -2.836343 29.577455 -0.882637 -2.226958 10.497147 0.000000 0.000000 0.000000 1.412826 19.808401 -6.679485 21.813051 -32.763057 6.485342 15.980389 5.333771 -49.720130 0.000000 0.000000 0.000000 -7.125000 0.000000 0.000000 -52.331138 75.956253 40.215329 0.000000 0.000000 0.000000 -8.218664 8.234060 -36.498752 -78.743254 -59.498657 -50.268893 -2.105074 -41.685745 3.066748 0.000000 0.000000 0.000000 7.125000 0.000000 0.000000 19.607659 32.565863 6.293735
